<?xml version="1.0" encoding="UTF-8"?>
<svg version="1.1" xmlns="http://www.w3.org/2000/svg" width="512" height="512">
<path d="M0 0 C1.01790619 0.00215515 2.03581238 0.0043103 3.08456421 0.00653076 C17.69363523 0.05620146 32.02575853 0.30709809 46.375 3.3125 C47.34985352 3.51117676 48.32470703 3.70985352 49.32910156 3.91455078 C97.7109774 14.03517194 141.69928269 35.9516877 177.375 70.3125 C178.3640332 71.26068604 178.3640332 71.26068604 179.37304688 72.22802734 C188.86130305 81.37247479 197.6012044 90.66984009 205.375 101.3125 C206.23306152 102.46355017 207.09113451 103.61459177 207.94921875 104.765625 C213.98736829 112.95680614 219.34595521 121.47054105 224.375 130.3125 C224.73948242 130.94430176 225.10396484 131.57610352 225.47949219 132.22705078 C247.08534998 169.97532572 256.85198095 212.74189997 256.6875 255.9375 C256.68534485 256.95540619 256.6831897 257.97331238 256.68096924 259.02206421 C256.63129854 273.63113523 256.38040191 287.96325853 253.375 302.3125 C253.07698486 303.77478027 253.07698486 303.77478027 252.77294922 305.26660156 C242.65232806 353.6484774 220.7358123 397.63678269 186.375 433.3125 C185.74287598 433.97185547 185.11075195 434.63121094 184.45947266 435.31054688 C175.31502521 444.79880305 166.01765991 453.5387044 155.375 461.3125 C154.22394983 462.17056152 153.07290823 463.02863451 151.921875 463.88671875 C143.73224019 469.92427396 135.22961724 475.30707302 126.375 480.3125 C125.66778809 480.7146875 124.96057617 481.116875 124.23193359 481.53125 C101.09654164 494.5566741 75.92537591 503.30551461 49.9375 508.625 C49.21860596 508.77235596 48.49971191 508.91971191 47.7590332 509.0715332 C33.08339502 511.86090125 18.55831162 512.66142619 3.64770508 512.62817383 C0.70811513 512.6250221 -2.2304558 512.64854926 -5.16992188 512.67382812 C-18.54306192 512.71848737 -31.43916711 511.51301542 -44.625 509.3125 C-46.33055054 509.03031616 -46.33055054 509.03031616 -48.07055664 508.74243164 C-91.33802759 500.97044532 -132.38793216 480.98345309 -165.625 452.3125 C-166.37007813 451.67828125 -167.11515625 451.0440625 -167.8828125 450.390625 C-181.38779833 438.57948485 -194.05918743 425.82889772 -204.625 411.3125 C-205.48149066 410.16255169 -206.33826433 409.01281411 -207.1953125 407.86328125 C-213.23534209 399.67315742 -218.61867614 391.16870382 -223.625 382.3125 C-224.0271875 381.60528809 -224.429375 380.89807617 -224.84375 380.16943359 C-237.8691741 357.03404164 -246.61801461 331.86287591 -251.9375 305.875 C-252.08485596 305.15610596 -252.23221191 304.43721191 -252.3840332 303.6965332 C-255.35789088 288.05024391 -255.99800362 272.57681954 -255.9375 256.6875 C-255.93534485 255.66959381 -255.9331897 254.65168762 -255.93096924 253.60293579 C-255.88129854 238.99386477 -255.63040191 224.66174147 -252.625 210.3125 C-252.42632324 209.33764648 -252.22764648 208.36279297 -252.02294922 207.35839844 C-241.90232806 158.9765226 -219.9858123 114.98821731 -185.625 79.3125 C-184.99287598 78.65314453 -184.36075195 77.99378906 -183.70947266 77.31445312 C-174.56502521 67.82619695 -165.26765991 59.0862956 -154.625 51.3125 C-153.47394983 50.45443848 -152.32290823 49.59636549 -151.171875 48.73828125 C-142.98224019 42.70072604 -134.47961724 37.31792698 -125.625 32.3125 C-124.91778809 31.9103125 -124.21057617 31.508125 -123.48193359 31.09375 C-100.34654164 18.0683259 -75.17537591 9.31948539 -49.1875 4 C-48.46860596 3.85264404 -47.74971191 3.70528809 -47.0090332 3.5534668 C-31.36274391 0.57960912 -15.88931954 -0.06050362 0 0 Z " fill="#1A1A1A" transform="translate(255.625,-0.3125)"/>
<path d="M0 0 C0.91340729 -0.00322445 1.82681458 -0.00644889 2.76790088 -0.00977105 C3.78305226 -0.00822245 4.79820363 -0.00667385 5.84411716 -0.00507832 C6.91345118 -0.00734387 7.98278519 -0.00960943 9.08452326 -0.01194364 C12.69747825 -0.01831579 16.31039604 -0.01745223 19.92335606 -0.01662922 C22.50150699 -0.0196187 25.07965747 -0.02302073 27.65780735 -0.02680683 C33.95160817 -0.03512962 40.24539962 -0.0378624 46.53920548 -0.03841921 C51.65262958 -0.0388936 56.76605057 -0.04094447 61.87947369 -0.04411983 C76.36186823 -0.05293082 90.84425534 -0.05753851 105.32665258 -0.05678936 C106.10815457 -0.0567494 106.88965656 -0.05670945 107.69484043 -0.05666828 C108.86851685 -0.05660696 108.86851685 -0.05660696 110.06590391 -0.0565444 C122.75182686 -0.05613779 135.43772014 -0.06570983 148.12363451 -0.07980665 C161.13464073 -0.09415118 174.14563246 -0.1010779 187.15664679 -0.10021287 C194.46729761 -0.09988024 201.77791734 -0.1026563 209.08856106 -0.11339092 C215.96095778 -0.12341698 222.83328763 -0.1231803 229.70568752 -0.11587429 C232.23495167 -0.11482318 234.76421984 -0.11722223 237.29347706 -0.12323475 C240.73255529 -0.13088361 244.17140181 -0.12635737 247.61047459 -0.11860371 C248.62339524 -0.12374727 249.63631589 -0.12889083 250.6799311 -0.13419026 C251.59594614 -0.12959147 252.51196118 -0.12499267 253.45573425 -0.12025452 C254.25032655 -0.12047188 255.04491885 -0.12068925 255.8635897 -0.12091321 C257.7907877 0.12863445 257.7907877 0.12863445 259.7907877 2.12863445 C260.01783848 5.01779461 260.01783848 5.01779461 259.9861002 8.66769695 C259.97965488 9.96965008 259.97320957 11.2716032 259.96656895 12.61300945 C259.94985699 13.99322041 259.93292708 15.37342874 259.9157877 16.75363445 C259.90575776 18.14164897 259.89663193 19.52967034 259.88844395 20.91769695 C259.86480632 24.32151471 259.83185637 27.72498952 259.7907877 31.12863445 C260.85039707 31.10543133 261.91000645 31.0822282 263.0017252 31.05832195 C264.389739 31.03956501 265.7777604 31.02136473 267.1657877 31.00363445 C268.21379551 30.97849773 268.21379551 30.97849773 269.2829752 30.9528532 C271.11976256 30.93519179 272.95680732 31.02560185 274.7907877 31.12863445 C277.45286542 33.79071218 277.03666826 35.77637015 277.0629366 39.39728928 C277.05915728 40.28501746 277.05537796 41.17274565 277.05148411 42.08737469 C277.05530966 43.02688945 277.0591352 43.96640421 277.06307667 44.93438911 C277.07344657 48.10205805 277.069407 51.26954707 277.0654459 54.4372282 C277.06979014 56.70026093 277.07497231 58.96329218 277.08093357 61.22632122 C277.09436502 67.38731409 277.0948977 73.54824578 277.09237027 79.70925045 C277.09130348 84.84385552 277.09617635 89.97844806 277.10097569 95.11305046 C277.11272094 107.91391563 277.11183758 120.71473668 277.10541888 133.51560247 C277.10024781 144.64305115 277.11150853 155.77041235 277.1305171 166.89784372 C277.14986883 178.31331464 277.1578644 189.72872799 277.15439385 201.14421844 C277.15257568 207.55725754 277.15527019 213.97021649 277.16910839 220.38324261 C277.18162797 226.41111262 277.17979858 232.43880673 277.1666975 238.46667385 C277.1643194 240.6847149 277.16711011 242.90276812 277.17532063 245.12079525 C277.18568587 248.13736961 277.17777034 251.1533424 277.1650095 254.16989422 C277.17238378 255.0576224 277.17975807 255.94535059 277.18735582 256.85997963 C277.16551781 259.29613018 277.16551781 259.29613018 276.7907877 263.12863445 C273.48771306 265.33068421 272.51988315 265.37683725 268.68454075 265.36914349 C267.10070087 265.37326748 267.10070087 265.37326748 265.48486423 265.37747478 C264.32680775 265.37028423 263.16875126 265.36309368 261.97560215 265.35568523 C260.75596775 265.35597729 259.53633335 265.35626934 258.27974033 265.35657024 C254.93488674 265.35541478 251.59027934 265.34537713 248.24546933 265.33142233 C244.75010003 265.31892869 241.25472752 265.31774555 237.75933933 265.31537151 C231.14016327 265.30915272 224.52105319 265.29273652 217.90190619 265.27267253 C210.36631819 265.25032595 202.83072705 265.23932323 195.29511416 265.22928166 C179.79363378 265.20837062 164.29221924 265.1731869 148.7907877 265.12863445 C148.84843714 268.50611613 148.94688822 271.88124546 149.05250645 275.2575407 C149.06825718 276.20939251 149.08400791 277.16124432 149.10023594 278.14194012 C149.41313313 286.98944406 152.43874672 291.08556256 158.7907877 297.12863445 C160.84102452 299.41975173 162.81248911 301.77536424 164.7907877 304.12863445 C165.80506824 305.31598218 166.82068014 306.50219398 167.8376627 307.6872282 C168.57726231 308.55130291 168.57726231 308.55130291 169.33180332 309.43283367 C170.73120469 311.05938017 172.14322395 312.67422766 173.5564127 314.2887907 C174.37625645 315.24656414 175.1961002 316.20433758 176.0407877 317.19113445 C176.76781895 318.02773602 177.4948502 318.86433758 178.2439127 319.7262907 C180.01449854 322.47606418 180.21346973 323.91958797 179.7907877 327.12863445 C178.25217116 328.66725099 176.84190812 328.25768547 174.69778538 328.26234722 C173.81581486 328.26661221 172.93384434 328.27087719 172.02514744 328.27527142 C171.05005726 328.27481823 170.07496708 328.27436504 169.07032871 328.27389812 C168.04927036 328.27725674 167.02821201 328.28061535 165.9762125 328.28407574 C162.5823608 328.29361765 159.18855825 328.29553045 155.79469395 328.2966032 C153.44678826 328.29981347 151.09888277 328.30317736 148.75097752 328.30668926 C143.82210418 328.31268861 138.89324841 328.31452833 133.96437168 328.31393719 C127.63424768 328.3138355 121.30423569 328.32749044 114.97413826 328.3447094 C110.12299166 328.35580259 105.27187237 328.35785723 100.42071438 328.35732746 C98.08622381 328.35851153 95.75173261 328.362957 93.41725445 328.37065983 C90.1583025 328.380406 86.89959673 328.37760303 83.64064121 328.37155437 C82.66757526 328.37717388 81.69450932 328.38279339 80.69195652 328.38858318 C79.80716618 328.38438869 78.92237583 328.38019421 78.01077366 328.37587261 C77.23960996 328.37641738 76.46844625 328.37696215 75.67391396 328.37752342 C73.7907877 328.12863445 73.7907877 328.12863445 71.7907877 326.12863445 C71.7907877 320.82650698 75.42620497 317.68379378 78.7907877 314.00363445 C79.98212922 312.66749711 81.17222711 311.3302499 82.3611002 309.9919157 C83.23943516 309.00892498 83.23943516 309.00892498 84.13551426 308.00607586 C87.06253388 304.68619667 89.82398255 301.23913073 92.5954752 297.7887907 C94.7907877 295.12863445 94.7907877 295.12863445 96.5034647 293.52315044 C101.30425375 288.78387977 102.60494511 285.31429909 102.76149082 278.60519695 C102.75053379 277.62293133 102.73957676 276.6406657 102.7282877 275.62863445 C102.74440098 274.61543133 102.76051426 273.6022282 102.77711582 272.55832195 C102.81218132 270.08036038 102.81604035 267.60659106 102.7907877 265.12863445 C102.14841475 265.13047804 101.50604179 265.13232162 100.844203 265.13422108 C85.22963824 265.17834769 69.61509511 265.21146543 54.00048351 265.2322588 C46.44944237 265.24258101 38.89844279 265.25665933 31.34742832 265.27951336 C24.76764663 265.29941838 18.18789504 265.31234401 11.60808408 265.31681144 C8.12259756 265.31942374 4.63719715 265.32558323 1.15173817 265.34009457 C-2.73470863 265.35614482 -6.6210704 265.356616 -10.50755215 265.35568523 C-11.66920391 265.36287579 -12.83085567 265.37006634 -14.02770901 265.37747478 C-15.60948689 265.37335079 -15.60948689 265.37335079 -17.22321987 265.36914349 C-18.14316927 265.37098707 -19.06311867 265.37283066 -20.01094532 265.37473011 C-22.2092123 265.12863445 -22.2092123 265.12863445 -24.2092123 263.12863445 C-24.40512597 260.09737569 -24.47393005 257.15754542 -24.45645046 254.12520123 C-24.45886488 253.18089735 -24.46127929 252.23659347 -24.46376687 251.26367432 C-24.46943054 248.07983874 -24.46072068 244.89620144 -24.45213223 241.71237469 C-24.45320444 239.43786852 -24.45514221 237.16336261 -24.45788479 234.88885784 C-24.46274571 228.69693104 -24.45506214 222.50507593 -24.44493175 216.3131578 C-24.43617258 209.847359 -24.43790827 203.3815626 -24.4382925 196.91575909 C-24.43735496 186.05677209 -24.42871216 175.19781697 -24.41502285 164.33883953 C-24.40093152 153.15524064 -24.39385219 141.97166617 -24.39451504 130.78805828 C-24.39455499 130.09915315 -24.39459495 129.41024802 -24.39463612 128.70046698 C-24.39467647 128.01277687 -24.39471683 127.32508675 -24.3947584 126.61655754 C-24.39541258 114.54425976 -24.39027145 102.47197367 -24.38196659 90.39967823 C-24.37842614 85.25094875 -24.37660226 80.10222281 -24.37607288 74.95349216 C-24.37507196 68.89694624 -24.36899596 62.84042621 -24.35890675 56.78388882 C-24.35597374 54.55414202 -24.35475798 52.32439224 -24.35533428 50.09464359 C-24.35582124 47.06476244 -24.35020631 44.03495498 -24.34292507 41.00508404 C-24.34447367 40.11055206 -24.34602228 39.21602009 -24.34761781 38.29438108 C-24.32339081 32.24281296 -24.32339081 32.24281296 -23.2092123 31.12863445 C-21.86653817 31.04231571 -20.51946908 31.02156972 -19.17405605 31.0309782 C-18.36516933 31.03420086 -17.55628262 31.03742352 -16.72288418 31.04074383 C-15.87274746 31.04912273 -15.02261074 31.05750164 -14.1467123 31.06613445 C-13.2927084 31.07064617 -12.43870449 31.07515789 -11.55882168 31.07980633 C-9.44225567 31.09163072 -7.32572545 31.10956677 -5.2092123 31.12863445 C-5.21706753 29.77330608 -5.21706753 29.77330608 -5.22508144 28.39059734 C-5.24208916 25.04911956 -5.25464564 21.70768754 -5.26414394 18.36618328 C-5.26918331 16.91793373 -5.27601483 15.46968929 -5.28465176 14.02145672 C-5.29673477 11.94388857 -5.30244442 9.86638748 -5.30686855 7.7887907 C-5.31210537 6.53719158 -5.31734219 5.28559246 -5.32273769 3.99606609 C-5.14758623 -0.42792098 -4.01239843 0.00355781 0 0 Z " fill="#F3F3F3" transform="translate(130.20921230316162,91.87136554718018)"/>
<path d="M0 0 C83.16 0 166.32 0 252 0 C252 47.85 252 95.7 252 145 C168.84 145 85.68 145 0 145 C0 97.15 0 49.3 0 0 Z " fill="#1B1B1B" transform="translate(131,148)"/>
<path d="M0 0 C83.49 0 166.98 0 253 0 C253 14.52 253 29.04 253 44 C169.51 44 86.02 44 0 44 C0 29.48 0 14.96 0 0 Z " fill="#202020" transform="translate(131,98)"/>
<path d="M0 0 C95.04 0 190.08 0 288 0 C288 10.23 288 20.46 288 31 C192.96 31 97.92 31 0 31 C0 20.77 0 10.54 0 0 Z " fill="#1A1A1A" transform="translate(112,319)"/>
<path d="M0 0 C4.29 0 8.58 0 13 0 C13.33 56.1 13.66 112.2 14 170 C60.54199128 170.02912114 60.54199128 170.02912114 107.08398438 170.04882812 C113.35050458 170.05078614 119.61702477 170.05280666 125.88354492 170.05493164 C127.06173075 170.05532726 127.06173075 170.05532726 128.26371831 170.05573088 C140.96110263 170.06008576 153.65848245 170.06797263 166.3558641 170.0771528 C179.37700154 170.08648885 192.3981366 170.09205551 205.41927725 170.09408849 C213.4605534 170.09546382 221.50181681 170.09981495 229.54308904 170.10791647 C235.69863319 170.11380398 241.85416754 170.11445909 248.00971413 170.11310768 C250.54262241 170.11338422 253.07553115 170.11539204 255.60843658 170.11920547 C259.05004669 170.12413557 262.49160105 170.12300083 265.93321228 170.12025452 C266.94972789 170.12316736 267.9662435 170.1260802 269.01356262 170.12908131 C269.92820331 170.12709026 270.842844 170.12509921 271.78520107 170.12304783 C272.58071516 170.12342755 273.37622926 170.12380727 274.19584984 170.1241985 C276.02202139 170.19693681 276.02202139 170.19693681 277 169 C277.10926092 166.82338634 277.14692654 164.64317693 277.15821838 162.46385193 C277.16562535 161.42738977 277.16562535 161.42738977 277.17318195 160.36998898 C277.18863006 158.03759612 277.19693722 155.70523092 277.20532227 153.37280273 C277.21489506 151.70764927 277.22490477 150.04249826 277.23532104 148.37734985 C277.26244113 143.84244542 277.2834121 139.3075305 277.30332303 134.77258945 C277.32513892 130.03864537 277.35254905 125.30473387 277.37937927 120.57081604 C277.42936581 111.60000261 277.47428244 102.62917117 277.51740164 93.65832239 C277.56672318 83.44807296 277.6216601 73.23785618 277.67708123 63.02763832 C277.79099274 42.01845596 277.89781171 21.00924243 278 0 C281.3 0 284.6 0 288 0 C288 60.39 288 120.78 288 183 C192.96 183 97.92 183 0 183 C0 122.61 0 62.22 0 0 Z " fill="#1C1C1C" transform="translate(112,129)"/>
<path d="M0 0 C1.02996094 -0.00128906 2.05992187 -0.00257813 3.12109375 -0.00390625 C4.74724609 0.00189453 4.74724609 0.00189453 6.40625 0.0078125 C7.49035156 0.00394531 8.57445312 0.00007812 9.69140625 -0.00390625 C10.72136719 -0.00261719 11.75132812 -0.00132812 12.8125 0 C14.24045898 0.00169189 14.24045898 0.00169189 15.69726562 0.00341797 C17.90625 0.1328125 17.90625 0.1328125 18.90625 1.1328125 C19.00125548 3.59725307 19.03182985 6.03355876 19.01977539 8.49829102 C19.01992142 9.26896912 19.02006744 10.03964722 19.0202179 10.8336792 C19.0195186 13.39305389 19.01172545 15.9523567 19.00390625 18.51171875 C19.00204213 20.28148865 19.0006182 22.05125906 18.99961853 23.82102966 C18.99579288 28.48832616 18.9859622 33.15559173 18.97491455 37.82287598 C18.96470144 42.58178285 18.96012113 47.34069471 18.95507812 52.09960938 C18.94433997 61.44402403 18.92726299 70.7884157 18.90625 80.1328125 C21.54625 80.1328125 24.18625 80.1328125 26.90625 80.1328125 C27.28843767 81.78895907 27.62020102 83.45738274 27.90625 85.1328125 C26.091019 86.9480435 23.27354569 86.25899966 20.83239746 86.25979614 C20.19113088 86.26135613 19.5498643 86.26291612 18.8891654 86.26452339 C16.72491551 86.26853494 14.56073488 86.26534316 12.39648438 86.26220703 C10.85118061 86.263561 9.30587717 86.26534091 7.76057434 86.26751709 C3.55201495 86.2720919 -0.65652004 86.27030167 -4.86507988 86.267138 C-9.25954125 86.26461465 -13.65400047 86.26695187 -18.04846191 86.26852417 C-25.42960995 86.27034594 -32.81074801 86.26793937 -40.19189453 86.26318359 C-48.7380238 86.25774096 -57.28412921 86.25950361 -65.83025789 86.26501 C-73.15422664 86.26954092 -80.47818818 86.27019178 -87.80215788 86.26757133 C-92.18238434 86.26600844 -96.56259957 86.26581511 -100.94282532 86.26910782 C-105.05986465 86.27198624 -109.17687309 86.27001139 -113.29390907 86.26421356 C-114.80929322 86.2628858 -116.32467995 86.26328034 -117.8400631 86.26547623 C-119.90004357 86.26818713 -121.95992348 86.26480738 -124.01989746 86.25979614 C-125.17544884 86.25941912 -126.33100021 86.25904209 -127.5215683 86.25865364 C-130.09375 86.1328125 -130.09375 86.1328125 -131.09375 85.1328125 C-131.09375 83.4828125 -131.09375 81.8328125 -131.09375 80.1328125 C-127.79375 80.1328125 -124.49375 80.1328125 -121.09375 80.1328125 C-121.09898682 78.9869165 -121.10422363 77.84102051 -121.10961914 76.66040039 C-121.12766717 72.42440568 -121.13918128 68.18841438 -121.14868164 63.95239258 C-121.15372231 62.11612375 -121.16055477 60.27985896 -121.16918945 58.44360352 C-121.18126672 55.81004849 -121.18698081 53.17654634 -121.19140625 50.54296875 C-121.19656754 49.71692642 -121.20172882 48.89088409 -121.20704651 48.03981018 C-121.20724205 46.07044882 -121.15579152 44.10119636 -121.09375 42.1328125 C-119.44485234 40.48391484 -117.52029616 41.00282869 -115.25390625 41 C-114.27357422 40.99871094 -113.29324219 40.99742187 -112.28320312 40.99609375 C-110.73536133 41.00189453 -110.73536133 41.00189453 -109.15625 41.0078125 C-108.12822266 41.00394531 -107.10019531 41.00007813 -106.04101562 40.99609375 C-104.56858398 40.99802734 -104.56858398 40.99802734 -103.06640625 41 C-101.70914429 41.00169189 -101.70914429 41.00169189 -100.32446289 41.00341797 C-98.09375 41.1328125 -98.09375 41.1328125 -96.09375 42.1328125 C-96.09375 54.6728125 -96.09375 67.2128125 -96.09375 80.1328125 C-91.80375 80.1328125 -87.51375 80.1328125 -83.09375 80.1328125 C-83.09898682 78.53252197 -83.10422363 76.93223145 -83.10961914 75.28344727 C-83.12766114 69.37020421 -83.13917907 63.45696361 -83.14868164 57.54370117 C-83.1537237 54.97989493 -83.16055714 52.41609159 -83.16918945 49.85229492 C-83.18126064 46.17626229 -83.18697942 42.50026752 -83.19140625 38.82421875 C-83.19656754 37.67006973 -83.20172882 36.51592072 -83.20704651 35.32679749 C-83.20712204 34.26577316 -83.20719757 33.20474884 -83.20727539 32.11157227 C-83.209496 31.17225357 -83.21171661 30.23293488 -83.21400452 29.26515198 C-83.09375 27.1328125 -83.09375 27.1328125 -82.09375 26.1328125 C-80.32515807 26.03334797 -78.55263549 26.00201033 -76.78125 26 C-75.70617187 25.99871094 -74.63109375 25.99742187 -73.5234375 25.99609375 C-72.39164063 25.99996094 -71.25984375 26.00382812 -70.09375 26.0078125 C-68.96195313 26.00394531 -67.83015625 26.00007813 -66.6640625 25.99609375 C-65.58898437 25.99738281 -64.51390625 25.99867188 -63.40625 26 C-62.41238281 26.00112793 -61.41851562 26.00225586 -60.39453125 26.00341797 C-58.09375 26.1328125 -58.09375 26.1328125 -57.09375 27.1328125 C-57.00034566 28.75956028 -56.97629829 30.39035301 -56.98022461 32.01977539 C-56.98033791 33.58128075 -56.98033791 33.58128075 -56.98045349 35.17433167 C-56.98561478 36.3066069 -56.99077606 37.43888214 -56.99609375 38.60546875 C-56.9975087 39.75824814 -56.99892365 40.91102753 -57.00038147 42.09873962 C-57.00599995 45.79762314 -57.01855558 49.49644714 -57.03125 53.1953125 C-57.03626262 55.69596267 -57.04082594 58.19661379 -57.04492188 60.69726562 C-57.05597538 66.84247101 -57.0732524 72.98763165 -57.09375 79.1328125 C-53.13375 79.1328125 -49.17375 79.1328125 -45.09375 79.1328125 C-45.10422363 77.17424316 -45.11469727 75.21567383 -45.12548828 73.19775391 C-45.15770324 66.73571365 -45.18070351 60.27369237 -45.19737434 53.81159401 C-45.20782365 49.89257966 -45.22200362 45.97365197 -45.24462891 42.0546875 C-45.26631661 38.27458211 -45.27830998 34.49456022 -45.28350449 30.71439743 C-45.28720759 29.27025411 -45.2944386 27.8261155 -45.30521011 26.3820076 C-45.31967017 24.36360356 -45.32056645 22.34511598 -45.32080078 20.32666016 C-45.325242 19.17638336 -45.32968323 18.02610657 -45.33425903 16.8409729 C-45.09375 14.1328125 -45.09375 14.1328125 -43.09375 12.1328125 C-40.87890625 11.87402344 -40.87890625 11.87402344 -38.15625 11.8671875 C-36.69058594 11.86332031 -36.69058594 11.86332031 -35.1953125 11.859375 C-34.17179687 11.86710938 -33.14828125 11.87484375 -32.09375 11.8828125 C-31.07023437 11.87507812 -30.04671875 11.86734375 -28.9921875 11.859375 C-28.01507813 11.86195313 -27.03796875 11.86453125 -26.03125 11.8671875 C-25.13277344 11.86944336 -24.23429687 11.87169922 -23.30859375 11.87402344 C-21.09375 12.1328125 -21.09375 12.1328125 -19.09375 14.1328125 C-18.85324097 16.87893677 -18.85324097 16.87893677 -18.86669922 20.41845703 C-18.86640717 21.06248474 -18.86611511 21.70651245 -18.86581421 22.37005615 C-18.86720926 24.50204877 -18.88277826 26.63369332 -18.8984375 28.765625 C-18.90216702 30.24250091 -18.90501428 31.71937928 -18.90701294 33.19625854 C-18.91465426 37.08598648 -18.93430692 40.97556538 -18.9564209 44.86523438 C-18.97686865 48.83331282 -18.98601236 52.80141532 -18.99609375 56.76953125 C-19.01755246 64.55736752 -19.05273853 72.34505015 -19.09375 80.1328125 C-14.80375 80.1328125 -10.51375 80.1328125 -6.09375 80.1328125 C-6.09597061 79.14531509 -6.09819122 78.15781769 -6.10047913 77.14039612 C-6.12071082 67.85482221 -6.13572227 58.56925275 -6.14556217 49.28366184 C-6.15079093 44.5093297 -6.15788844 39.73501529 -6.16918945 34.96069336 C-6.1800186 30.35714988 -6.18602689 25.75362351 -6.18862724 21.15006828 C-6.19048144 19.38971627 -6.19410196 17.62936524 -6.19948006 15.86902046 C-6.20669086 13.41208973 -6.20774093 10.95523055 -6.20727539 8.49829102 C-6.21087067 7.76317795 -6.21446594 7.02806488 -6.21817017 6.27067566 C-6.20584765 0.29980757 -5.88115924 0.0069682 0 0 Z " fill="#F9F9F9" transform="translate(307.09375,194.8671875)"/>
<path d="M0 0 C1.33557701 -0.00639748 1.33557701 -0.00639748 2.69813538 -0.01292419 C3.68257629 -0.01247101 4.66701721 -0.01201782 5.68128967 -0.0115509 C6.71210159 -0.01490952 7.74291351 -0.01826813 8.80496216 -0.02172852 C12.23127936 -0.03127054 15.65754788 -0.03318324 19.08387756 -0.03425598 C21.4542035 -0.03746624 23.82452923 -0.04083013 26.19485474 -0.04434204 C31.17080647 -0.05034142 36.14674082 -0.05218111 41.12269592 -0.05158997 C47.51335365 -0.05148828 53.90390042 -0.06514326 60.29453182 -0.08236217 C65.19200151 -0.09345524 70.08944415 -0.09551001 74.98692513 -0.09498024 C77.34374436 -0.09616433 79.7005642 -0.1006099 82.05737114 -0.10831261 C85.34745535 -0.11805852 88.63729568 -0.11525591 91.92738342 -0.10920715 C92.90980011 -0.11482666 93.8922168 -0.12044617 94.90440369 -0.12623596 C96.24421043 -0.11994423 96.24421043 -0.11994423 97.61108398 -0.11352539 C98.38962203 -0.11407016 99.16816008 -0.11461493 99.97029018 -0.1151762 C101.86903381 0.13371277 101.86903381 0.13371277 103.86903381 2.13371277 C104.06752452 4.67906418 104.14755156 7.09088035 104.11903381 9.63371277 C104.13063538 10.66818542 104.13063538 10.66818542 104.14247131 11.72355652 C104.12236674 16.88037984 104.12236674 16.88037984 101.86903381 19.13371277 C99.96749687 19.37980843 99.96749687 19.37980843 97.60435486 19.3742218 C96.26238037 19.37834579 96.26238037 19.37834579 94.89329529 19.3825531 C93.90930756 19.37536255 92.92531982 19.368172 91.91151428 19.36076355 C90.87734375 19.3610556 89.84317322 19.36134766 88.77766418 19.36164856 C85.34709893 19.36025122 81.91674879 19.34467094 78.48622131 19.32902527 C76.11253478 19.32529658 73.7388467 19.32244893 71.36515808 19.32044983 C65.10810622 19.31280205 58.85114675 19.29314373 52.59413147 19.27104187 C46.21312205 19.25060807 39.83209775 19.2414534 33.45106506 19.23136902 C20.92368182 19.20989893 8.39636273 19.17613195 -4.13096619 19.13371277 C-5.71793463 15.95977588 -5.27411088 12.55197072 -5.25596619 9.07121277 C-5.25983337 8.32549011 -5.26370056 7.57976746 -5.26768494 6.81144714 C-5.25533229 0.01131786 -5.25533229 0.01131786 0 0 Z " fill="#FEFEFE" transform="translate(270.13096618652344,109.86628723144531)"/>
<path d="M0 0 C1.65808097 -0.04289948 3.31572493 -0.11080876 4.97167969 -0.20507812 C19.41271583 -1.01886157 19.41271583 -1.01886157 24.51708984 3.34130859 C27.3812562 6.2465184 29.7241164 9.4772377 32.07250977 12.81005859 C33.64438744 14.7559669 35.26397664 16.65435193 36.88500977 18.56005859 C40.40945083 22.89573465 43.71247961 27.33001838 47.07250977 31.81005859 C18.36250977 31.81005859 -10.34749023 31.81005859 -39.92749023 31.81005859 C-37.87768521 27.71044855 -35.35947705 24.64941439 -32.36499023 21.24755859 C-31.28191806 20.00236948 -30.19989863 18.75626396 -29.11889648 17.50927734 C-28.31282959 16.57994385 -28.31282959 16.57994385 -27.49047852 15.63183594 C-24.47766587 12.12018209 -21.57684448 8.5187829 -18.66967773 4.91943359 C-13.77131155 -1.01132367 -7.25033208 0.14064522 0 0 Z " fill="#1B1B1B" transform="translate(252.927490234375,381.18994140625)"/>
<path d="M0 0 C4.02336613 0.35316983 7.16444857 1.91399343 10.6875 3.8125 C11.64011719 4.31394531 12.59273438 4.81539062 13.57421875 5.33203125 C17.43907028 7.98950565 17.43907028 7.98950565 18 11 C16.8262169 13.77225155 15.63097724 16.17180596 14.125 18.75 C13.73441406 19.44738281 13.34382813 20.14476562 12.94140625 20.86328125 C11.97519587 22.58360705 10.9894264 24.29292098 10 26 C8.35 25.67 6.7 25.34 5 25 C5.875 19.25 5.875 19.25 7 17 C-1.46787514 19.4347326 -9.79590174 22.25892522 -18.125 25.125 C-18.85600922 25.37589386 -19.58701843 25.62678772 -20.34017944 25.88528442 C-37.75388312 31.86532321 -55.10664268 38.01896795 -72.45605469 44.18255615 C-74.37065385 44.86238517 -76.28568279 45.54100522 -78.20117188 46.21832275 C-82.24082019 47.64916676 -86.27253743 49.09170311 -90.27880859 50.61376953 C-91.50035645 51.07251465 -92.7219043 51.53125977 -93.98046875 52.00390625 C-95.50063599 52.5908728 -95.50063599 52.5908728 -97.05151367 53.18969727 C-100.46472136 54.12771468 -103.47656902 54.14071694 -107 54 C-107 52.35 -107 50.7 -107 49 C-94.06599057 43.81818416 -80.99167543 39.14539189 -67.8104248 34.63348389 C-62.11544275 32.68353161 -56.42471662 30.72125865 -50.734375 28.7578125 C-49.58785461 28.3622818 -48.44133423 27.9667511 -47.2600708 27.55923462 C-35.72951051 23.57386831 -24.23463796 19.49057256 -12.75 15.375 C-11.83597412 15.04749756 -10.92194824 14.71999512 -9.98022461 14.38256836 C-4.98550129 12.59202431 0.00789596 10.79783315 5 9 C4.030625 8.54753906 3.06125 8.09507812 2.0625 7.62890625 C-1 6 -1 6 -2 3.9375 C-2 2 -2 2 0 0 Z " fill="#F4F4F4" transform="translate(305,159)"/>
<path d="M0 0 C4.29 0 8.58 0 13 0 C13 24.42 13 48.84 13 74 C8.71 74 4.42 74 0 74 C0 49.58 0 25.16 0 0 Z " fill="#1E1E1E" transform="translate(307,201)"/>
<path d="M0 0 C4.29 0 8.58 0 13 0 C13 20.46 13 40.92 13 62 C8.71 62 4.42 62 0 62 C0 41.54 0 21.08 0 0 Z " fill="#242424" transform="translate(269,213)"/>
<path d="M0 0 C32.01 0 64.02 0 97 0 C97 2.31 97 4.62 97 7 C64.99 7 32.98 7 0 7 C0 4.69 0 2.38 0 0 Z " fill="#363636" transform="translate(271,116)"/>
<path d="M0 0 C4.29 0 8.58 0 13 0 C13 15.84 13 31.68 13 48 C8.71 48 4.42 48 0 48 C0 32.16 0 16.32 0 0 Z " fill="#222222" transform="translate(230,227)"/>
<path d="M0 0 C10.56 0 21.12 0 32 0 C32 5.94 32 11.88 32 18 C21.44 18 10.88 18 0 18 C0 12.06 0 6.12 0 0 Z " fill="#1A1A1A" transform="translate(240,357)"/>
<path d="M0 0 C4.29 0 8.58 0 13 0 C13 10.56 13 21.12 13 32 C8.71 32 4.42 32 0 32 C0 21.44 0 10.88 0 0 Z " fill="#202020" transform="translate(192,243)"/>
<path d="M0 0 C0.73734375 0.00773437 1.4746875 0.01546875 2.234375 0.0234375 C3.34039062 0.01183594 3.34039062 0.01183594 4.46875 0 C9.9810554 0.0201179 9.9810554 0.0201179 12.234375 2.2734375 C12.43286571 4.81878891 12.51289275 7.23060509 12.484375 9.7734375 C12.49210937 10.46308594 12.49984375 11.15273437 12.5078125 11.86328125 C12.48770793 17.02010457 12.48770793 17.02010457 10.234375 19.2734375 C7.52514699 19.47195852 4.94134321 19.55183227 2.234375 19.5234375 C1.49703125 19.53117187 0.7596875 19.53890625 0 19.546875 C-5.5123054 19.5267571 -5.5123054 19.5267571 -7.765625 17.2734375 C-7.96411571 14.72808609 -8.04414275 12.31626991 -8.015625 9.7734375 C-8.02335938 9.08378906 -8.03109375 8.39414063 -8.0390625 7.68359375 C-8.01315396 1.03805432 -6.56554419 0.02396184 0 0 Z " fill="#F3F3F3" transform="translate(150.765625,109.7265625)"/>
<path d="M0 0 C0.79792969 0.00386719 1.59585938 0.00773437 2.41796875 0.01171875 C3.21589844 0.00785156 4.01382813 0.00398438 4.8359375 0 C10.79136108 0.01011108 10.79136108 0.01011108 11.91796875 1.13671875 C12.0178385 3.98006923 12.05674756 6.79369038 12.04296875 9.63671875 C12.04876953 10.83361328 12.04876953 10.83361328 12.0546875 12.0546875 C12.04457642 18.01011108 12.04457642 18.01011108 10.91796875 19.13671875 C8.05529308 19.20997043 5.21724975 19.2291008 2.35546875 19.19921875 C1.54916016 19.19470703 0.74285156 19.19019531 -0.08789062 19.18554688 C-2.08596881 19.17372393 -4.08400908 19.15578789 -6.08203125 19.13671875 C-7.66899969 15.96278186 -7.22517595 12.5549767 -7.20703125 9.07421875 C-7.21089844 8.32849609 -7.21476563 7.58277344 -7.21875 6.81445312 C-7.20633145 -0.02195605 -6.79898378 0.01154327 0 0 Z " fill="#FCFCFC" transform="translate(208.08203125,109.86328125)"/>
<path d="M0 0 C1.46751239 0.00399142 2.93502584 0.01874717 4.40234375 0.04296875 C5.14806641 0.04361328 5.89378906 0.04425781 6.66210938 0.04492188 C12.19956216 0.09018716 12.19956216 0.09018716 13.33984375 1.23046875 C13.4397135 4.07381923 13.47862256 6.88744038 13.46484375 9.73046875 C13.47064453 10.92736328 13.47064453 10.92736328 13.4765625 12.1484375 C13.46645142 18.10386108 13.46645142 18.10386108 12.33984375 19.23046875 C9.68161718 19.35705097 7.06096951 19.41567089 4.40234375 19.41796875 C3.66048828 19.43021484 2.91863281 19.44246094 2.15429688 19.45507812 C0.21470746 19.46035353 -1.72439335 19.35235777 -3.66015625 19.23046875 C-6.15226064 16.73836436 -5.92031286 15.22686087 -5.93359375 11.8203125 C-5.92585937 11.13066406 -5.918125 10.44101563 -5.91015625 9.73046875 C-5.91789063 9.04082031 -5.925625 8.35117188 -5.93359375 7.640625 C-5.91275992 2.29674633 -5.78042607 0.3639756 0 0 Z " fill="#FBFBFB" transform="translate(177.66015625,109.76953125)"/>
<path d="M0 0 C1.12535156 0.00580078 1.12535156 0.00580078 2.2734375 0.01171875 C3.02367187 0.00785156 3.77390625 0.00398438 4.546875 0 C10.14682697 0.01010822 10.14682697 0.01010822 11.2734375 1.13671875 C11.31407582 2.8028899 11.3161585 4.4705997 11.2734375 6.13671875 C8.22361492 7.66163004 5.05221211 7.28033309 1.7109375 7.26171875 C1.01291016 7.26558594 0.31488281 7.26945312 -0.40429688 7.2734375 C-5.59992256 7.26335869 -5.59992256 7.26335869 -6.7265625 6.13671875 C-6.8515625 3.63671875 -6.8515625 3.63671875 -6.7265625 1.13671875 C-4.90540247 -0.68444128 -2.41984486 0.00436795 0 0 Z " fill="#EAEAEA" transform="translate(253.7265625,330.86328125)"/>
<path d="M0 0 C2.31 0 4.62 0 7 0 C7 2.31 7 4.62 7 7 C4.69 7 2.38 7 0 7 C0 4.69 0 2.38 0 0 Z " fill="#454545" transform="translate(207,116)"/>
<path d="M0 0 C2.31 0 4.62 0 7 0 C7 2.31 7 4.62 7 7 C4.69 7 2.38 7 0 7 C0 4.69 0 2.38 0 0 Z " fill="#454545" transform="translate(178,116)"/>
<path d="M0 0 C1.98 0 3.96 0 6 0 C6 2.31 6 4.62 6 7 C4.02 7 2.04 7 0 7 C0 4.69 0 2.38 0 0 Z " fill="#343434" transform="translate(150,116)"/>
</svg>
